<?xml version="1.0" encoding="UTF-8" standalone="no"?>
<!-- Created with Inkscape (http://www.inkscape.org/) -->

<svg
   xmlns:dc="http://purl.org/dc/elements/1.1/"
   xmlns:cc="http://creativecommons.org/ns#"
   xmlns:rdf="http://www.w3.org/1999/02/22-rdf-syntax-ns#"
   xmlns:svg="http://www.w3.org/2000/svg"
   xmlns="http://www.w3.org/2000/svg"
   xmlns:sodipodi="http://sodipodi.sourceforge.net/DTD/sodipodi-0.dtd"
   xmlns:inkscape="http://www.inkscape.org/namespaces/inkscape"
   width="210mm"
   height="297mm"
   viewBox="0 0 744.09448819 1052.3622047"
   id="svg2"
   version="1.1"
   inkscape:version="0.91 r13725"
   sodipodi:docname="drawing.svg">
  <defs
     id="defs4" />
  <sodipodi:namedview
     id="base"
     pagecolor="#ffffff"
     bordercolor="#666666"
     borderopacity="1.0"
     inkscape:pageopacity="0.0"
     inkscape:pageshadow="2"
     inkscape:zoom="0.66"
     inkscape:cx="419.71827"
     inkscape:cy="520"
     inkscape:document-units="px"
     inkscape:current-layer="layer20"
     showgrid="false"
     inkscape:window-width="1630"
     inkscape:window-height="1005"
     inkscape:window-x="0"
     inkscape:window-y="0"
     inkscape:window-maximized="1" />
  <metadata
     id="metadata7">
    <rdf:RDF>
      <cc:Work
         rdf:about="">
        <dc:format>image/svg+xml</dc:format>
        <dc:type
           rdf:resource="http://purl.org/dc/dcmitype/StillImage" />
        <dc:title></dc:title>
      </cc:Work>
    </rdf:RDF>
  </metadata>
  <g
     inkscape:groupmode="layer"
     id="layer6"
     inkscape:label="wing 1"
     sodipodi:insensitive="true">
    <ellipse
       style="fill:#000000;fill-opacity:1;stroke:none;stroke-width:0.1;stroke-miterlimit:4;stroke-dasharray:none"
       id="path4155"
       cx="396.02563"
       cy="251.84074"
       rx="190.15152"
       ry="84.848488"
       transform="matrix(0.85542273,0.51793046,-0.51793046,0.85542273,0,0)" />
    <ellipse
       style="fill:#000000;fill-opacity:1;stroke:none;stroke-width:0.1;stroke-miterlimit:4;stroke-dasharray:none"
       id="path4177"
       cx="186.37866"
       cy="696.09637"
       rx="189.39394"
       ry="88.63636"
       transform="matrix(0.76965222,-0.63846336,0.63846336,0.76965222,0,0)" />
  </g>
  <g
     inkscape:groupmode="layer"
     id="layer7"
     inkscape:label="wing 2"
     sodipodi:insensitive="true">
    <ellipse
       style="fill:#ffffff;fill-opacity:1;stroke:none;stroke-width:0.1;stroke-miterlimit:4;stroke-dasharray:none"
       id="path4180"
       cx="382.13123"
       cy="261.86954"
       rx="176.51515"
       ry="67.42424"
       transform="matrix(0.86873497,0.49527725,-0.49527725,0.86873497,0,0)" />
    <ellipse
       style="fill:#ffffff;fill-opacity:1;stroke:none;stroke-width:0.1;stroke-miterlimit:4;stroke-dasharray:none"
       id="path4182"
       cx="697.73682"
       cy="-203.83447"
       rx="78.030304"
       ry="162.1212"
       transform="matrix(0.63257867,0.77449611,-0.77449611,0.63257867,0,0)" />
  </g>
  <g
     inkscape:label="body 1"
     inkscape:groupmode="layer"
     id="layer1"
     sodipodi:insensitive="true">
    <ellipse
       style="fill:#000000;fill-opacity:1;stroke:none;stroke-width:0.1;stroke-miterlimit:4;stroke-dasharray:none"
       id="path4136"
       cx="399.24243"
       cy="747.81677"
       rx="97.727272"
       ry="186.36363" />
  </g>
  <g
     inkscape:groupmode="layer"
     id="layer2"
     inkscape:label="body 2"
     sodipodi:insensitive="true">
    <ellipse
       style="fill:#ffff00;fill-opacity:1;stroke:none;stroke-width:0.1;stroke-miterlimit:4;stroke-dasharray:none"
       id="path4139"
       cx="399.24243"
       cy="790.24103"
       rx="88.63636"
       ry="137.87878" />
  </g>
  <g
     inkscape:groupmode="layer"
     id="layer3"
     inkscape:label="body 3"
     style="display:inline"
     sodipodi:insensitive="true">
    <rect
       style="fill:#000000;fill-opacity:1;stroke:none;stroke-width:0.1;stroke-miterlimit:4;stroke-dasharray:none"
       id="rect4142"
       width="168.18182"
       height="118.18182"
       x="313.63635"
       y="647.21069" />
    <rect
       style="fill:#000000;fill-opacity:1;stroke:none;stroke-width:0.1;stroke-miterlimit:4;stroke-dasharray:none"
       id="rect4144"
       width="184.84848"
       height="60.60606"
       x="304.54544"
       y="712.96826" />
  </g>
  <g
     inkscape:groupmode="layer"
     id="layer4"
     inkscape:label="body 4"
     sodipodi:insensitive="true">
    <path
       style="fill:#000000;fill-opacity:1;stroke:none;stroke-width:0.1;stroke-miterlimit:4;stroke-dasharray:none"
       id="path4147"
       d="m 327.42446,811.4602 c 5.52173,1.20349 10.85085,3.0218 16.10798,5.07241 4.22,1.83289 8.63526,3.13659 12.93985,4.72909 2.54689,0.78199 5.0373,1.79688 7.60119,2.52054 2.76033,0.71703 5.64579,0.74216 8.48083,0.8104 3.5753,-0.1152 7.08626,0.62236 10.62894,1.00624 3.76684,0.39025 7.55414,0.47238 11.33772,0.51969 3.28935,0.0217 6.57874,0.0161 9.86813,0.0107 3.44424,0.004 6.88855,0.007 10.33276,-0.0107 3.47696,0.24338 6.87006,-0.24911 10.29711,-0.74487 3.13395,-0.88765 6.29487,-1.67304 9.53698,-2.02281 2.51443,-0.27616 4.98171,0.0588 7.29502,-1.07481 2.26106,-0.89396 4.26384,-2.26676 6.56738,-3.05915 1.69957,-1.08931 3.59364,-1.83207 5.4744,-2.54144 2.35736,-0.734 4.86185,-1.23587 7.05317,-2.38951 2.14853,-0.80957 4.22591,-1.81919 6.42808,-2.47949 0,0 -9.47052,7.36044 -9.47052,7.36044 l 0,0 c -2.14152,0.79751 -4.26278,1.66316 -6.35842,2.57328 -2.33261,0.87472 -4.73544,1.53399 -7.08493,2.35701 -1.85387,0.79698 -3.68835,1.61682 -5.48569,2.53392 -2.20828,0.97314 -4.28093,2.23252 -6.56191,3.04452 -2.42992,0.70186 -4.95325,0.47194 -7.44629,0.83195 -3.21072,0.48193 -6.33352,1.3222 -9.50114,2.0161 -3.46453,0.48594 -6.92012,0.78981 -10.42435,0.62916 -3.44063,-0.015 -6.88135,-0.008 -10.32198,0.004 -3.28569,10e-4 -6.57185,0.0143 -9.85715,-0.043 -3.80344,-0.0705 -7.60963,-0.17904 -11.3918,-0.62105 -3.52969,-0.4047 -7.04446,-1.00619 -10.61069,-0.89966 -2.91518,-0.10202 -5.87994,-0.18771 -8.68872,-1.05481 -2.54317,-0.83236 -5.08426,-1.6838 -7.59772,-2.59903 -4.3065,-1.54095 -8.61454,-3.07117 -12.84302,-4.82308 -5.27716,-2.02515 -10.63823,-3.78157 -16.19255,-4.88441 0,0 9.88734,-6.77139 9.88734,-6.77139 z"
       inkscape:connector-curvature="0" />
    <path
       style="fill:#000000;fill-opacity:1;stroke:none;stroke-width:0.1;stroke-miterlimit:4;stroke-dasharray:none"
       id="path4149"
       d="m 347.12143,861.4602 c 8.73752,2.99289 17.54782,5.77665 26.37283,8.50261 8.51121,2.64657 17.30445,3.91522 26.16979,4.48826 6.58747,0.31863 13.18509,0.28944 19.77816,0.25208 4.97398,-0.1637 9.51347,-2.30169 14.13445,-3.90755 4.48507,-1.52961 8.87415,-3.33269 13.35383,-4.90534 3.85365,-1.5751 7.75093,-3.06384 11.54574,-4.78202 4.54796,-1.34923 11.82711,-5.94806 -5.42603,3.75903 0,0 11.16594,-4.40389 11.16594,-4.40389 l 0,0 c -5.60542,3.28717 -9.48008,6.13795 -15.10372,8.0626 -3.81407,1.64568 -7.67986,3.18475 -11.55547,4.67543 -4.46039,1.59936 -8.84922,3.38662 -13.33933,4.89303 -4.65069,1.67713 -9.30796,3.58912 -14.34058,3.56217 -6.57869,-0.002 -13.16156,0.004 -19.73146,-0.38942 -8.89211,-0.64914 -17.68078,-2.09403 -26.20297,-4.79383 -8.89813,-2.76406 -17.7615,-5.63767 -26.70852,-8.24177 0,0 9.88734,-6.77139 9.88734,-6.77139 z"
       inkscape:connector-curvature="0" />
  </g>
  <g
     inkscape:groupmode="layer"
     id="layer5"
     inkscape:label="body 5"
     sodipodi:insensitive="true">
    <ellipse
       style="fill:#000000;fill-opacity:1;stroke:none;stroke-width:0.1;stroke-miterlimit:4;stroke-dasharray:none"
       id="path4152"
       cx="396.9697"
       cy="549.33191"
       rx="93.939392"
       ry="121.21212" />
  </g>
  <g
     inkscape:groupmode="layer"
     id="layer8"
     inkscape:label="head 1"
     sodipodi:insensitive="true">
    <ellipse
       style="fill:#000000;fill-opacity:1;stroke:none;stroke-width:0.1;stroke-miterlimit:4;stroke-dasharray:none"
       id="path4185"
       cx="400.75757"
       cy="347.05917"
       rx="118.93939"
       ry="125" />
  </g>
  <g
     inkscape:groupmode="layer"
     id="layer9"
     inkscape:label="head 2"
     sodipodi:insensitive="true">
    <ellipse
       style="fill:#ffffff;fill-opacity:1;stroke:none;stroke-width:0.1;stroke-miterlimit:4;stroke-dasharray:none"
       id="path4188"
       cx="400"
       cy="343.2713"
       rx="112.12122"
       ry="113.63637" />
  </g>
  <g
     inkscape:groupmode="layer"
     id="layer10"
     inkscape:label="head 3"
     sodipodi:insensitive="true" />
  <g
     inkscape:groupmode="layer"
     id="layer11"
     inkscape:label="eyes 1"
     sodipodi:insensitive="true">
    <ellipse
       style="fill:#000000;fill-opacity:1;stroke:none;stroke-width:0.1;stroke-miterlimit:4;stroke-dasharray:none"
       id="path4211"
       cx="328.0303"
       cy="290.99857"
       rx="53.78788"
       ry="65.909088" />
    <ellipse
       style="fill:#000000;fill-opacity:1;stroke:none;stroke-width:0.1;stroke-miterlimit:4;stroke-dasharray:none"
       id="path4213"
       cx="462.12122"
       cy="295.54404"
       rx="57.575756"
       ry="65.909088" />
  </g>
  <g
     inkscape:groupmode="layer"
     id="layer12"
     inkscape:label="eyes 2"
     sodipodi:insensitive="true">
    <ellipse
       style="fill:#ffffff;fill-opacity:1;stroke:none;stroke-width:0.1;stroke-miterlimit:4;stroke-dasharray:none"
       id="path4216"
       cx="328.78787"
       cy="290.99857"
       rx="48.484848"
       ry="58.333332" />
    <ellipse
       style="fill:#ffffff;fill-opacity:1;stroke:none;stroke-width:0.1;stroke-miterlimit:4;stroke-dasharray:none"
       id="path4218"
       cx="462.12122"
       cy="294.02887"
       rx="51.515152"
       ry="61.363636" />
    <ellipse
       style="fill:#000000;fill-opacity:1;stroke:none;stroke-width:0.1;stroke-miterlimit:4;stroke-dasharray:none"
       id="path4220"
       cx="317.42426"
       cy="312.96826"
       rx="12.878788"
       ry="18.181818" />
    <ellipse
       style="fill:#000000;fill-opacity:1;stroke:none;stroke-width:0.1;stroke-miterlimit:4;stroke-dasharray:none"
       id="path4222"
       cx="456.81818"
       cy="328.11978"
       rx="17.424242"
       ry="21.212122" />
  </g>
  <g
     inkscape:groupmode="layer"
     id="layer13"
     inkscape:label="nose 1"
     sodipodi:insensitive="true">
    <path
       style="fill:#000000;fill-opacity:1;stroke:none;stroke-width:0.1;stroke-miterlimit:4;stroke-dasharray:none"
       id="path4225"
       d="m 381.52286,361.30434 c 1.86765,4.90103 5.2878,8.68709 9.19038,12.0652 3.26704,2.68546 7.06718,4.47712 11.14871,5.49093 0.38322,-0.0206 0.77744,0.0316 1.14966,-0.0618 0.32693,-0.0821 0.60249,-0.30247 0.90374,-0.45371 0.23789,-0.17948 0.97448,-0.68258 0.71367,-0.53844 -14.88444,8.22599 -11.10873,7.43408 -8.05944,3.91668 1.21229,-1.67574 2.446,-3.33474 3.72056,-4.96353 0,0 10.99552,-4.70037 10.99552,-4.70037 l 0,0 c -1.29158,1.59231 -2.55279,3.21214 -3.69869,4.91384 -3.24832,5.03152 -9.59429,9.19942 -15.59995,8.66354 -4.1406,-1.25494 -7.9934,-3.23003 -11.3288,-6.01591 -3.97977,-3.54898 -7.46841,-7.47976 -9.5785,-12.4512 0,0 10.44314,-5.86518 10.44314,-5.86518 z"
       inkscape:connector-curvature="0" />
  </g>
  <g
     inkscape:groupmode="layer"
     id="layer14"
     inkscape:label="mouth 1"
     sodipodi:insensitive="true">
    <path
       style="fill:#000000;fill-opacity:1;stroke:none;stroke-width:0.1;stroke-miterlimit:4;stroke-dasharray:none"
       id="path4230"
       d="m 344.50592,389.40617 c 6.49849,4.6193 13.81329,7.71894 21.05206,10.9414 5.23565,2.53496 10.85513,3.80811 16.60313,4.40938 4.19437,0.3126 8.40431,0.24283 12.60674,0.22633 4.18682,-0.0233 8.37349,-0.044 12.56037,-0.0529 3.5907,-0.0101 7.18141,-0.0173 10.77213,-0.021 3.01154,0.11922 5.94129,0.0173 8.90104,-0.51271 3.01473,-1.03921 6.07633,-1.91877 9.00394,-3.19515 -3.56432,2.33883 9.71108,-5.25401 5.97415,-3.09429 -11.04422,6.3829 -11.40997,6.64289 -7.50877,4.17806 3.32533,-1.87359 6.29149,-4.28944 9.35002,-6.55271 4.94526,-3.45965 1.87374,-1.37009 12.97355,-7.7051 0.73156,-0.41752 2.98187,-1.56735 2.24929,-1.15162 -9.71308,5.51205 -12.17247,7.41297 -8.40797,4.59546 2.44438,-1.61444 4.35955,-3.76961 6.25502,-5.9692 1.94275,-2.61963 3.89207,-5.22591 6.3472,-7.39147 3.68899,-2.064 7.26137,-4.35186 11.06697,-6.19201 0.56214,-0.27182 1.04531,0.89395 1.10043,1.51592 0.17255,1.94692 -1.31735,4.48668 -1.98388,6.1804 -2.92084,7.3598 -6.67299,14.35711 -10.50101,21.2781 -2.00538,3.63973 -4.00799,7.28007 -6.04327,10.90308 -1.87904,3.5666 -4.50113,6.54432 -7.27431,9.42912 -3.39889,3.44723 -6.85583,6.83657 -10.29581,10.24264 -3.18726,2.9591 -6.86337,5.34955 -10.6003,7.55147 -6.04183,2.73989 -11.89538,8.03788 -18.70969,9.60379 -1.814,0.41686 -3.35117,0.53479 -5.20326,0.74433 -6.47962,0.45504 -12.98225,0.43598 -19.47466,0.45716 -5.7331,0.4742 -9.18209,-1.44257 -13.39954,-5.02102 -3.00347,-2.89415 -5.99516,-5.80183 -8.96253,-8.72966 -2.42958,-2.20211 -4.95176,-4.19446 -7.72465,-5.93723 -2.74758,-1.46381 -5.11973,-3.43344 -6.97728,-5.92516 -1.43402,-1.77237 -2.17689,-3.91678 -3.20132,-5.90931 -1.13536,-2.38186 -2.75459,-4.52389 -4.43195,-6.54864 -1.67145,-1.83498 -2.60613,-4.07765 -3.63177,-6.29429 -0.4306,-1.07658 -0.69355,-2.19098 -1.10582,-3.27396 0,0 10.48693,-5.84102 10.48693,-5.84102 l 0,0 c 0.41683,1.06025 0.68916,2.13506 1.07382,3.20578 0.97708,2.12665 1.843,4.28929 3.43874,6.05503 1.70593,2.11092 3.42498,4.2848 4.60747,6.73965 0.9912,1.93433 1.67934,4.02465 3.07069,5.74807 1.79602,2.36261 4.09439,4.16141 6.69303,5.58979 2.83547,1.78942 5.43605,3.85303 7.89055,6.14123 2.92807,2.91287 5.80544,5.8795 8.83397,8.68982 4.30615,3.53167 7.21755,4.68966 12.89628,4.3658 6.47027,0.005 12.95957,0.0421 19.40549,-0.5924 2.10402,-0.30404 3.08991,-0.37242 5.11357,-0.94414 4.1805,-1.18106 14.74589,-7.512 -1.77698,1.93973 3.73735,-2.16614 7.41263,-4.46793 10.70962,-7.27367 3.44081,-3.40291 6.89935,-6.78812 10.31043,-10.22093 2.74676,-2.81864 5.46297,-5.63604 7.34037,-9.13269 2.10328,-3.631 4.0775,-7.33472 6.186,-10.96424 3.95576,-6.78747 7.67123,-13.77083 10.52753,-21.09697 2.91383,-7.74342 1.71858,-5.62427 11.69289,-10.92869 -2.72696,1.79657 -4.63949,4.56825 -6.5113,7.18743 -1.88592,2.21835 -3.63484,4.54582 -6.08126,6.19156 -3.56917,2.59748 -26.86439,15.4828 -5.4386,3.33093 0.50833,-0.2883 -0.9709,0.65072 -1.45635,0.97608 -3.1042,2.18214 -5.95863,4.74602 -9.27618,6.61043 -6.17317,3.79475 -12.35781,7.68982 -18.9961,10.63201 -2.99895,1.16719 -6.05852,2.22184 -9.18399,2.99187 -2.99172,0.4575 -5.98954,0.37724 -9.0106,0.34946 -3.57726,-0.003 -7.15451,-0.009 -10.73177,-0.005 -4.18606,0.01 -8.37215,0.0276 -12.55813,0.0545 -4.22766,0.021 -8.46631,0.0506 -12.67945,-0.35272 -5.77707,-0.759 -11.40758,-2.19706 -16.65103,-4.8115 -7.28116,-3.28953 -14.56059,-6.55419 -21.29587,-10.90195 0,0 9.99198,-6.51233 9.99198,-6.51233 z"
       inkscape:connector-curvature="0" />
  </g>
  <g
     inkscape:groupmode="layer"
     id="layer15"
     inkscape:label="tongue"
     sodipodi:insensitive="true">
    <path
       style="fill:#ff0000;fill-opacity:1;stroke:none;stroke-width:0.1;stroke-miterlimit:4;stroke-dasharray:none"
       id="path4233"
       d="m 401.52188,434.95304 c 3.90061,-0.49425 7.78552,-0.80666 11.63825,-1.60271 0.0983,-0.038 2.71363,-1.04476 2.86627,-1.12327 0.39151,-0.20136 1.48546,-0.94436 1.10202,-0.72802 -3.07413,1.73443 -6.11427,3.52846 -9.17657,5.28371 -0.30546,0.17508 0.59846,-0.37157 0.90591,-0.54315 3.79362,-2.11706 7.59788,-4.215 11.39682,-6.3225 2.09251,-0.52595 4.18938,-0.78728 6.27654,-1.32975 1.92277,-0.21437 3.6403,-1.40627 5.53865,-1.46861 2.0549,-0.0536 3.02143,1.80699 3.22357,3.60808 -1.70453,5.479 -8.84098,7.89931 -14.38672,8.43982 -2.17661,-0.13175 -4.16967,0.33782 -6.24958,0.89177 -2.25643,0.45263 -4.34163,1.47187 -6.45204,2.35283 3.09406,-1.75585 6.1847,-3.51772 9.28217,-5.26755 0.3449,-0.19485 -0.67954,0.40751 -1.02436,0.60251 -3.78915,2.14289 -7.54547,4.34561 -11.37737,6.41109 -0.9531,0.51374 -2.35034,0.67805 -3.40483,0.86408 0,0 9.56178,-7.26189 9.56178,-7.26189 l 0,0 c 1.21571,-0.31192 4.66167,-1.95282 3.22322,-1.0793 -3.03545,1.84334 -6.13602,3.57725 -9.20202,5.36932 -0.34148,0.19959 0.68564,-0.3946 1.02846,-0.5919 3.77458,-2.16049 7.54916,-4.32099 11.32374,-6.48149 2.12489,-0.92668 4.31482,-1.72029 6.58365,-2.21681 2.09923,-0.49795 4.18747,-0.67478 6.33938,-0.78002 0.64799,-0.10373 2.48185,-0.7615 1.92442,-0.41521 -16.18532,10.05482 -11.42985,6.97777 -7.90456,4.62924 0.28345,-1.43319 -0.77167,-2.16121 -2.10724,-1.85585 -1.80649,0.55195 -3.59777,1.14256 -5.44938,1.54233 -2.0557,0.51105 -4.20402,0.62909 -6.17258,1.46364 3.07713,-1.81064 6.15061,-3.6275 9.2314,-5.43191 0.30999,-0.18156 -0.60824,0.38275 -0.91884,0.56325 -5.15124,2.99359 -9.77224,6.5657 -15.4955,8.07438 -3.88346,0.72774 -7.82373,0.94686 -11.72199,1.58701 0,0 9.59733,-7.18312 9.59733,-7.18312 z"
       inkscape:connector-curvature="0" />
  </g>
  <g
     inkscape:groupmode="layer"
     id="layer16"
     inkscape:label="sensors 1"
     sodipodi:insensitive="true">
    <path
       style="fill:#000000;fill-opacity:1;stroke:none;stroke-width:0.1;stroke-miterlimit:4;stroke-dasharray:none"
       id="path4236"
       d="m 268.96072,83.098636 c -0.1946,9.343526 -0.17287,18.690654 -0.17583,28.035864 -0.30937,8.56742 0.6416,17.06466 3.06366,25.28049 1.93346,5.5852 4.80382,10.77682 7.55636,15.98643 1.85748,3.6096 3.84928,7.09262 6.33896,10.30324 3.45809,4.67106 7.55501,8.82747 11.85728,12.7189 5.32221,4.406 10.51077,8.89995 15.23241,13.95122 3.51211,3.5243 7.37235,6.74973 11.3912,9.68579 3.5779,2.80613 6.85083,5.94281 10.44825,8.74377 3.62098,3.12 7.54433,5.79783 11.56455,8.3662 2.03676,1.66782 1.03211,0.86189 3.01192,2.42032 0,0 -10.09854,6.34908 -10.09854,6.34908 l 0,0 c -1.94165,-1.55165 -0.96213,-0.77329 -2.93873,-2.33487 -3.99236,-2.64851 -7.92463,-5.35973 -11.56926,-8.48217 -3.59236,-2.79737 -6.88324,-5.91302 -10.4755,-8.69701 -4.01126,-3.04882 -7.91503,-6.29475 -11.41642,-9.92196 -4.67738,-5.04465 -9.85186,-9.50404 -15.1486,-13.88501 -4.35333,-3.9487 -8.53041,-8.13463 -12.09696,-12.81776 -2.52575,-3.27413 -4.55326,-6.81474 -6.4015,-10.511 -2.73457,-5.30861 -5.61053,-10.58096 -7.56124,-16.24501 -2.47429,-8.33353 -3.39967,-16.97264 -3.05489,-25.66404 -0.003,-9.28547 0.0201,-18.572936 -0.17583,-27.856685 0,0 10.64871,-5.425789 10.64871,-5.425789 z"
       inkscape:connector-curvature="0" />
    <path
       style="fill:#000000;fill-opacity:1;stroke:none;stroke-width:0.1;stroke-miterlimit:4;stroke-dasharray:none"
       id="path4238"
       d="m 540.16443,69.647795 c -0.32106,8.510413 -0.0568,17.035524 -0.47618,25.54329 -0.35435,7.188585 -0.83454,10.911775 -1.57268,18.109055 -1.44281,17.42849 -6.84339,34.06817 -12.77663,50.39871 -3.18837,9.03954 -7.74146,17.43226 -12.54856,25.68193 -2.55509,3.84838 -5.37698,7.52169 -8.16749,11.20285 -2.21877,3.09156 -4.38315,6.16511 -7.10546,8.83937 -2.73065,2.55367 -5.64073,4.918 -8.31618,7.529 -1.55407,1.84597 -3.21993,3.58249 -4.8468,5.36144 -0.86338,0.87953 -0.42794,0.45765 -1.30435,1.26769 0,0 -11.10649,4.61596 -11.10649,4.61596 l 0,0 c 0.80837,-0.91334 0.36264,-0.50839 1.33361,-1.21879 1.60293,-1.8543 3.42529,-3.47676 4.9058,-5.44932 2.56594,-2.73514 5.57579,-5.02564 8.31011,-7.58286 2.84424,-2.52722 5.04735,-5.53793 7.17989,-8.67067 2.8999,-3.58686 5.54264,-7.39759 8.29786,-11.09614 5.0202,-8.22281 9.79808,-16.59626 13.09353,-25.69434 6.07005,-16.24614 11.60131,-32.81748 13.05657,-50.21962 1.45725,-14.37224 2.14912,-28.754318 1.41156,-43.200335 0,0 10.63189,-5.41722 10.63189,-5.41722 z"
       inkscape:connector-curvature="0" />
    <circle
       style="fill:#000000;fill-opacity:1;stroke:none;stroke-width:0.1;stroke-miterlimit:4;stroke-dasharray:none"
       id="path4240"
       cx="253.0303"
       cy="84.180389"
       r="15.151515" />
    <ellipse
       style="fill:#000000;fill-opacity:1;stroke:none;stroke-width:0.1;stroke-miterlimit:4;stroke-dasharray:none"
       id="path4242"
       cx="540.90912"
       cy="71.301598"
       rx="10.606061"
       ry="14.393939" />
  </g>
  <g
     inkscape:groupmode="layer"
     id="layer17"
     inkscape:label="legs 1"
     sodipodi:insensitive="true">
    <path
       style="fill:#000000;fill-opacity:1;stroke:none;stroke-width:0.1;stroke-miterlimit:4;stroke-dasharray:none"
       id="path4245"
       d="m 304.55283,496.27807 c -11.49435,-3.22558 -22.70917,-7.17156 -33.75995,-11.67394 -19.29606,-7.85003 -38.1988,-16.6059 -56.85014,-25.87232 -11.29956,-5.61718 -21.28033,-13.24835 -30.94822,-21.25079 -5.15972,-3.80519 -9.05774,-8.80831 -12.47558,-14.16281 -1.31167,-2.46729 -0.72021,-1.27646 -1.79245,-3.56347 0,0 10.39634,-5.86718 10.39634,-5.86718 l 0,0 c 0.97431,2.22801 0.43049,1.07268 1.65194,3.45626 3.28818,5.28535 7.1012,10.16928 12.10506,13.95853 9.46754,8.01434 19.2377,15.67976 30.37344,21.3049 18.56496,9.39243 37.44353,18.16469 56.81347,25.78291 11.25598,4.40003 22.66947,8.26593 34.41769,11.14941 0,0 -9.9316,6.7385 -9.9316,6.7385 z"
       inkscape:connector-curvature="0" />
    <path
       style="fill:#000000;fill-opacity:1;stroke:none;stroke-width:0.1;stroke-miterlimit:4;stroke-dasharray:none"
       id="path4247"
       d="m 487.73937,478.17618 c 7.6482,-4.22539 15.34206,-8.37322 22.98484,-12.60979 9.64105,-5.34425 6.78397,-3.28017 10.4401,-5.97728 15.43644,-8.97235 30.32853,-18.79132 43.76779,-30.57119 5.63592,-5.10048 10.40395,-10.89406 14.5657,-17.22337 3.49506,-5.82648 6.86292,-11.72171 11.07803,-17.06719 0.51524,-0.63592 1.03049,-1.27185 1.54574,-1.90777 0,0 10.91444,-4.64975 10.91444,-4.64975 l 0,0 c -0.52807,0.64097 -1.05614,1.28194 -1.58421,1.92291 -4.39,5.20687 -7.75803,11.10788 -11.18249,16.97262 -4.16017,6.5048 -8.93337,12.44275 -14.70118,17.6272 -13.56491,11.9444 -28.62171,21.88939 -44.22267,30.97873 -17.52327,10.21849 -35.15268,20.23005 -52.91113,30.03309 0,0 9.30504,-7.52821 9.30504,-7.52821 z"
       inkscape:connector-curvature="0" />
    <path
       style="fill:#000000;fill-opacity:1;stroke:none;stroke-width:0.1;stroke-miterlimit:4;stroke-dasharray:none"
       id="path4249"
       d="m 493.1764,545.83059 c 17.699,0.22837 35.39548,0.19002 53.08872,0.72184 12.46728,0.55185 24.89778,1.85546 37.21333,3.86636 5.7291,0.93545 11.42377,1.98212 16.98173,3.68964 2.03154,0.62413 3.9863,1.47517 5.97945,2.21276 6.92678,3.64704 11.92287,8.23806 14.54302,15.64797 1.91785,7.47992 -0.44591,14.71614 -3.44658,21.53953 -2.66098,5.41288 -6.69969,9.61967 -11.9702,12.55073 -14.63212,8.13728 -9.71021,6.37277 -19.71541,9.13615 -7.73544,1.5922 -15.67758,2.58144 -23.5716,1.67577 -4.46917,-0.51274 -6.79619,-1.25586 -11.09859,-2.35305 -6.20895,-1.51953 -12.02695,-4.20137 -18.01996,-6.35281 -4.08996,-0.99424 -8.27916,-1.42593 -12.43783,-2.03628 -5.85117,-0.8018 -11.78629,-1.30912 -17.50865,-2.82956 -2.38339,-0.67785 -1.26004,-0.26452 -3.38134,-1.20885 0,0 9.9451,-6.63149 9.9451,-6.63149 l 0,0 c 2.00984,0.81204 0.93516,0.43681 3.23567,1.09177 5.69174,1.42144 11.53379,2.05358 17.34516,2.77716 4.26079,0.55118 8.5903,0.91483 12.71892,2.16744 5.80761,2.32106 11.51854,4.94659 17.61397,6.46435 4.36964,1.0839 6.38069,1.74313 10.92777,2.19923 7.8491,0.78732 15.73759,-0.28734 23.38593,-2.02059 9.36902,-2.8838 4.05904,-1.80599 -0.28757,2.12855 -1.14393,1.03548 2.70607,-1.49551 3.96947,-2.38129 3.54886,-2.48814 6.22686,-5.70398 8.24048,-9.52659 3.01241,-6.50634 5.42216,-13.43855 3.67958,-20.66361 -2.35987,-7.0956 -7.12088,-11.47185 -13.68006,-14.97191 -1.92925,-0.7345 -3.82061,-1.57751 -5.78775,-2.2035 -5.43426,-1.72934 -11.0087,-2.8271 -16.62069,-3.79194 -12.21673,-2.10037 -24.56376,-3.41412 -36.95196,-3.89205 -18.00889,-0.4373 -36.01664,-0.25233 -54.0284,-0.003 0,0 9.63829,-7.00262 9.63829,-7.00262 z"
       inkscape:connector-curvature="0" />
    <path
       style="fill:#000000;fill-opacity:1;stroke:none;stroke-width:0.1;stroke-miterlimit:4;stroke-dasharray:none"
       id="path4255"
       d="m 487.463,635.23562 c 20.19537,0.62233 38.73602,9.52032 56.76545,17.7794 13.9839,7.08866 28.42463,14.52891 39.9593,25.38344 1.38653,1.30478 2.62353,2.75984 3.9353,4.13975 1.08749,1.43192 2.24803,2.81119 3.26248,4.29575 1.31802,1.9288 5.26496,8.69253 6.36246,10.52387 3.67573,6.13349 7.39954,12.20529 11.3361,18.17469 4.76077,6.93979 9.03547,14.20209 14.15143,20.89276 3.05904,3.43383 5.02813,7.63012 7.24998,11.61524 0.37344,0.60968 0.74687,1.21935 1.1203,1.82903 0,0 -10.28686,5.97319 -10.28686,5.97319 l 0,0 c -0.38041,-0.62429 -0.76083,-1.24859 -1.14124,-1.87288 -2.18831,-3.94233 -4.15113,-8.06911 -7.12259,-11.50157 -5.01673,-6.78843 -9.10774,-14.17712 -13.79536,-21.18875 -3.91397,-5.99696 -7.67898,-12.07176 -11.41586,-18.18055 -1.01389,-1.65743 -5.16386,-8.55564 -6.40221,-10.35817 -0.99448,-1.44758 -2.11422,-2.80499 -3.17133,-4.20749 -1.26408,-1.36361 -2.45699,-2.79684 -3.79226,-4.09083 -11.25025,-10.90238 -25.37665,-18.50103 -39.23651,-25.46942 -18.15703,-8.28281 -36.98943,-17.03435 -57.38633,-16.75702 0,0 9.60775,-6.98044 9.60775,-6.98044 z"
       inkscape:connector-curvature="0" />
    <path
       style="fill:#000000;fill-opacity:1;stroke:none;stroke-width:0.1;stroke-miterlimit:4;stroke-dasharray:none"
       id="path4257"
       d="m 291.32488,517.97363 c -18.73577,-1.05051 -36.57177,1.50535 -54.90455,5.08117 -17.77396,3.91804 -35.53808,8.3909 -52.50635,15.0482 -4.71965,2.17362 -4.57602,2.02657 -8.94198,4.32707 -1.20408,0.63445 -4.75483,2.64964 -3.58608,1.95224 14.02274,-8.36735 5.13938,-2.83717 2.20022,-0.28981 -2.81269,2.42819 -4.19045,5.16545 -4.62165,8.78 -0.23489,3.62503 -0.12337,7.26203 -0.0964,10.89187 0.0651,5.36441 3.79192,8.47459 7.8041,11.4037 5.27003,4.34445 11.25861,7.03443 17.66866,9.15571 6.53809,1.91248 13.36356,2.17296 20.1241,2.39503 5.78426,0.14911 11.57049,0.0936 17.35567,0.0606 1.90707,-0.0128 3.81416,-0.0237 5.72125,-0.0337 0,0 -9.65421,7.01917 -9.65421,7.01917 l 0,0 c -1.8954,0.003 -3.79079,0.006 -5.68619,0.008 -5.75381,0.004 -11.50859,-0.0261 -17.26045,-0.18629 -6.85438,-0.26434 -13.76954,-0.57637 -20.36841,-2.63886 -6.47758,-2.21252 -12.46457,-5.16996 -17.85186,-9.47101 -4.27879,-3.15685 -8.2477,-6.58815 -8.45838,-12.2939 -0.0524,-3.66435 -0.16099,-7.33289 0.009,-10.99555 0.33651,-4.10545 1.23861,-6.71954 4.36598,-9.62639 8.56185,-8.003 19.82077,-12.56497 30.29685,-17.53103 16.91155,-6.36158 34.52464,-10.72989 52.16487,-14.53718 3.90822,-0.74867 7.79916,-1.59397 11.72466,-2.24601 14.59023,-2.42348 29.32899,-3.39607 44.109,-3.25341 0,0 -9.60774,6.98043 -9.60774,6.98043 z"
       inkscape:connector-curvature="0" />
    <path
       style="fill:#000000;fill-opacity:1;stroke:none;stroke-width:0.1;stroke-miterlimit:4;stroke-dasharray:none"
       id="path4259"
       d="m 287.40777,652.00396 c -12.48352,5.94113 -24.63794,12.59066 -36.79964,19.16793 0.61929,-0.30498 2.42366,-1.3104 1.85785,-0.91495 -18.93056,13.23064 4.31974,-3.85831 -13.87455,9.22557 -5.80386,4.17367 -11.17942,8.75312 -16.46262,13.55407 -7.24393,6.2688 -14.03764,13.01092 -20.24728,20.30198 -5.36698,6.13988 -9.33277,13.30781 -13.55753,20.23866 -2.48018,4.0987 -4.38534,8.50535 -5.40626,13.18734 -0.26459,1.78248 -0.16486,0.91333 -0.30878,2.60634 0,0 -10.72525,5.35874 -10.72525,5.35874 l 0,0 c 0.13045,-1.78151 0.048,-0.86201 0.25379,-2.75793 1.03345,-4.83354 2.91735,-9.40878 5.45787,-13.65392 4.30343,-6.92508 8.18305,-14.19497 13.51119,-20.41009 6.22107,-7.41563 13.07408,-14.24989 20.43426,-20.54197 14.39428,-13.19116 30.58413,-23.98951 47.79541,-33.2213 12.37974,-6.68895 24.70569,-13.59666 37.51003,-19.42746 0,0 -9.43849,7.28699 -9.43849,7.28699 z"
       inkscape:connector-curvature="0" />
    <ellipse
       style="fill:#000000;fill-opacity:1;stroke:none;stroke-width:0.1;stroke-miterlimit:4;stroke-dasharray:none"
       id="path4261"
       cx="171.21213"
       cy="759.93799"
       rx="13.636364"
       ry="15.151515" />
    <ellipse
       style="fill:#000000;fill-opacity:1;stroke:none;stroke-width:0.1;stroke-miterlimit:4;stroke-dasharray:none"
       id="path4263"
       cx="624.24243"
       cy="762.21069"
       rx="12.121212"
       ry="17.424242" />
    <ellipse
       style="fill:#000000;fill-opacity:1;stroke:none;stroke-width:0.1;stroke-miterlimit:4;stroke-dasharray:none"
       id="path4265"
       cx="502.27274"
       cy="599.33191"
       rx="12.878788"
       ry="12.121212" />
    <circle
       style="fill:#000000;fill-opacity:1;stroke:none;stroke-width:0.1;stroke-miterlimit:4;stroke-dasharray:none"
       id="path4267"
       cx="240.9091"
       cy="593.2713"
       r="15.151515" />
    <ellipse
       style="fill:#000000;fill-opacity:1;stroke:none;stroke-width:0.1;stroke-miterlimit:4;stroke-dasharray:none"
       id="path4269"
       cx="175.75757"
       cy="422.81674"
       rx="21.212122"
       ry="14.393939" />
    <ellipse
       style="fill:#000000;fill-opacity:1;stroke:none;stroke-width:0.1;stroke-miterlimit:4;stroke-dasharray:none"
       id="path4271"
       cx="599.24243"
       cy="394.78644"
       rx="14.393939"
       ry="7.5757575" />
  </g>
  <g
     inkscape:groupmode="layer"
     id="layer18"
     inkscape:label="camera 1"
     sodipodi:insensitive="true">
    <rect
       style="fill:#cccccc;fill-opacity:1;stroke:none;stroke-width:0.1;stroke-miterlimit:4;stroke-dasharray:none"
       id="rect4274"
       width="160.60606"
       height="113.63635"
       x="316.12119"
       y="491.21069" />
  </g>
  <g
     inkscape:groupmode="layer"
     id="layer19"
     inkscape:label="camera 2"
     sodipodi:insensitive="true">
    <ellipse
       style="fill:#000000;fill-opacity:1;stroke:none;stroke-width:0.1;stroke-miterlimit:4;stroke-dasharray:none"
       id="path4277"
       cx="399.15152"
       cy="559.02887"
       rx="39.39394"
       ry="37.878788" />
    <ellipse
       style="fill:#000000;fill-opacity:1;stroke:none;stroke-width:0.1;stroke-miterlimit:4;stroke-dasharray:none"
       id="path4279"
       cx="344.69696"
       cy="522.0592"
       rx="11.363636"
       ry="12.121212" />
    <path
       style="fill:#000000;fill-opacity:1;stroke:none;stroke-width:0.1;stroke-miterlimit:4;stroke-dasharray:none"
       id="path4281"
       d="m 425.81532,501.86901 c 3.58478,0.0401 7.16979,0.0154 10.75467,0.009 2.54189,-0.001 5.08379,-0.0203 7.62567,-0.0103 1.12983,-0.002 2.25963,-0.002 3.38945,-0.006 0,0 -9.7188,7.06112 -9.7188,7.06112 l 0,0 c -1.12424,-0.005 -2.24847,-0.004 -3.37273,-0.006 -2.53245,0.01 -5.06492,-0.009 -7.59738,-0.0103 -3.59341,-0.006 -7.18694,-0.0306 -10.78025,0.009 0,0 9.69937,-7.047 9.69937,-7.047 z"
       inkscape:connector-curvature="0" />
  </g>
  <g
     inkscape:groupmode="layer"
     id="layer20"
     inkscape:label="light 1">
    <path
       style="fill:#ffff00;fill-opacity:1;stroke:none;stroke-width:0.1;stroke-miterlimit:4;stroke-dasharray:none"
       id="path4286"
       d="m 249.63802,856.37891 c -13.94795,-0.82136 -27.53886,3.06583 -40.83439,6.7472 -16.90976,5.45655 -32.68746,13.64033 -48.04246,22.45487 30.7946,-19.34933 9.81773,-4.58259 2.50434,-0.10103 -10.05825,9.97731 -23.68018,11.9194 -35.38322,18.34542 0,0 18.45823,-14.79552 18.45823,-14.79552 l 0,0 c 8.77873,-4.18948 32.21457,-13.92844 -5.22596,4.97462 12.75698,-7.20878 23.39086,-17.82186 37.50946,-22.86392 15.24336,-8.50988 30.96766,-16.24508 47.68134,-21.46309 13.9892,-3.82991 28.10526,-7.54277 42.7314,-7.39256 0,0 -19.39874,14.09401 -19.39874,14.09401 z"
       inkscape:connector-curvature="0" />
    <path
       style="fill:#ffff00;fill-opacity:1;stroke:none;stroke-width:0.1;stroke-miterlimit:4;stroke-dasharray:none"
       id="path4288"
       d="m 326.83142,939.79436 c -4.84128,8.75244 -11.12048,16.55992 -17.10542,24.53175 -5.99531,7.12537 -10.80162,15.06792 -15.42105,23.11787 -3.09374,4.7425 -5.30675,9.88515 -7.30689,15.14872 -0.94773,2.5015 -1.65872,5.0867 -2.45969,7.6388 0,0 -21.59419,10.2835 -21.59419,10.2835 l 0,0 c 0.64018,-2.6825 1.71863,-5.2397 2.3694,-7.9247 2.38107,-5.308 4.24517,-10.8588 7.67708,-15.64661 4.65273,-8.15577 9.32201,-16.35547 15.51917,-23.47015 5.76713,-7.75581 12.11705,-15.16939 16.54218,-23.82549 0,0 21.77941,-9.85369 21.77941,-9.85369 z"
       inkscape:connector-curvature="0" />
    <path
       style="fill:#ffff00;fill-opacity:1;stroke:none;stroke-width:0.1;stroke-miterlimit:4;stroke-dasharray:none"
       id="path4290"
       d="m 503.95884,950.17229 c 13.82201,3.93104 26.5028,11.23015 39.04963,18.09672 10.48021,5.46798 20.69279,11.42493 31.0906,17.0414 3.24204,1.92373 5.98314,4.46285 8.57336,7.16572 1.86505,2.74274 2.82648,6.00172 4.15797,9.03377 0.60963,1.2836 1.3655,2.4103 2.34459,3.4267 0,0 -20.52899,12.3856 -20.52899,12.3856 l 0,0 c -1.03063,-1.2788 -1.90287,-2.6197 -2.59561,-4.1196 -1.21578,-2.7813 -2.22644,-5.7223 -3.88508,-8.2596 -2.32713,-2.5746 -4.86427,-4.95497 -7.81906,-6.80686 -9.88972,-6.11888 -19.84097,-12.13068 -30.10174,-17.61658 -12.52622,-6.80593 -25.44893,-14.37297 -39.7301,-16.51405 0,0 19.44443,-13.83322 19.44443,-13.83322 z"
       inkscape:connector-curvature="0" />
    <path
       style="fill:#ffff00;fill-opacity:1;stroke:none;stroke-width:0.1;stroke-miterlimit:4;stroke-dasharray:none"
       id="path4292"
       d="m 582.84403,813.5414 c 15.42638,1.49839 30.41102,6.00442 45.35787,9.92652 11.14647,3.38163 22.16026,7.45038 31.84117,14.01742 4.11049,2.6397 6.37783,7.01098 8.60629,11.20491 1.41768,2.804 3.32407,5.29974 4.84223,8.04487 0,0 -20.70623,11.885 -20.70623,11.885 l 0,0 c -1.48533,-2.77972 -3.43043,-5.26941 -4.82354,-8.10346 -1.9941,-3.89772 -4.05031,-7.83983 -7.75803,-10.37976 -9.18723,-6.52164 -19.66876,-10.7551 -30.42022,-14.00184 -15.10534,-4.02919 -30.44823,-8.67887 -46.21611,-8.58841 0,0 19.27657,-14.00525 19.27657,-14.00525 z"
       inkscape:connector-curvature="0" />
  </g>
</svg>
